


<svg version="1.1" id="Logo" xmlns="http://www.w3.org/2000/svg" xmlns:xlink="http://www.w3.org/1999/xlink" x="0px" y="0px"
	 viewBox="0 0 327 139" style="enable-background:new 0 0 327 139;" xml:space="preserve">
<style type="text/css">
	.st0{fill:#5BA1DF;}
	.st1{clip-path:url(#maskDer_1_);}
	.st2{clip-path:url(#SVGID_2_);fill:#5BA1DF;}
</style>

	<defs>
		<clipPath id="cut-off-parte2">
			<rect id="maskDer" x="-85" y="12.5" width="202.5" height="75.5"/>
		</clipPath>
	</defs>
	<defs>
		<clipPath id="cut-off-parte1">
			<rect id="maskIzq" x="75" y="20" width="67.5" height="67.5"/>
		</clipPath>
	</defs>


<g>
	<g id="claim">
		<g>
			<path class="st0" d="M33.2,118.8l-2.1-5.1H20c-0.2,0.6-0.6,1.3-0.8,1.9c-0.5,1-1,2.3-1.4,3.3H16l9-21h1.3l8.6,21H33.2z
				 M20.6,112.1h9.8c-1.6-4.1-3.1-7.5-4.7-11.5L20.6,112.1z"/>
			<path class="st0" d="M37.4,112.7v-1.9c0-3.3,2.8-6,6.1-6c1.8,0,3.5,0.7,4.6,2.1c0.5-1.2,1.5-2,3.4-2v1.6c-1.4,0-2,0.6-2,1.6
				l-0.1,12.4c0,4.7-2.5,8.1-6.8,8.1c-2.3,0-4.6-1.2-4.6-3.9c0-4.5,5-4.9,8.3-4.9l1.4,0l0-3c-1.2,1.2-2.8,1.9-4.4,1.9
				C40.2,118.7,37.4,116,37.4,112.7z M39.1,110.8v1.9c0,2.4,2,4.4,4.4,4.4c2.1,0,4.3-1.8,4.4-3.9v0c0-0.8,0-1.8,0-2.5
				c0-2.3-2.2-4.2-4.4-4.2C41.1,106.4,39.1,108.4,39.1,110.8z M46.3,121.5c-2.5,0-6.5,0.2-6.5,3.2c0,1.5,1.4,2.3,2.8,2.3
				c3.2,0,5.3-2.7,5.3-5.5L46.3,121.5z"/>
			<path class="st0" d="M55.1,112.8c0.2,2.8,2.4,4.3,5.2,4.3c1,0,2.3-0.3,3.5-1l0.8,1.5c-1.4,0.8-3,1.2-4.4,1.2
				c-4.3,0-6.8-2.7-6.8-6.9c0-4.1,2.2-7.4,6.6-7.4c3.5,0,5.2,2.2,5.2,4.3c0,2.2-1.8,4.5-5.5,4.5C58.2,113.4,56.6,113.2,55.1,112.8z
				 M55.1,111.1c1.6,0.3,3.2,0.6,4.7,0.6c2.5,0,3.8-1.5,3.8-2.9c0-1.4-1.2-2.7-3.6-2.7C57.3,106.1,55.4,108.5,55.1,111.1z"/>
			<path class="st0" d="M79,118.8h-1.6v-8.7c0-2.1-1.8-3.8-4-3.8c-2.2,0-3.9,1.7-3.9,3.8l0,8.7h-1.6V105h1.6v1.3
				c1-0.9,2.5-1.6,4-1.6c3,0,5.6,2.5,5.6,5.4V118.8z"/>
			<path class="st0" d="M81.7,112.3V111c0-3.6,3.1-6.5,6.6-6.5c1.9,0,4,1,5.4,2.7l-1.2,1.1c-1.2-1.4-2.8-2.1-4.2-2.1
				c-2.7,0-5,2.1-5,4.8v1.4c0,2.7,2.3,4.9,5,4.9c1.5,0,3-0.8,4.2-2.1l1.2,1.1c-1.5,1.6-3.5,2.6-5.4,2.6
				C84.8,118.8,81.7,116,81.7,112.3z"/>
			<path class="st0" d="M96.9,99c0-0.6,0.5-1.1,1.1-1.1c0.5,0,1,0.5,1,1.1c0,0.5-0.5,1-1,1C97.4,100.1,96.9,99.5,96.9,99z
				 M97.2,118.8v-14.1h1.6v14.1H97.2z"/>
			<path class="st0" d="M115,118.7c-2.2,0-3-0.9-3.3-2c-1.1,1.4-2.8,2.1-4.5,2.1c-2.9,0-5.6-1.5-5.6-4.7c0-3.2,3.2-3.9,5.6-3.9
				c1.6,0,3,0.2,4.5,0.5c-0.2-2.7-2.1-4.3-5.1-4.3c-1,0-2.2,0.3-3.5,1l-0.8-1.4c1.5-0.9,3-1.3,4.3-1.3c1.2,0,2.4,0.2,3.4,0.8
				c3.2,1.6,3.3,4.4,3.3,7.1c0,0.4,0,0.8,0,2.5c0,1.4,0.3,2,1.7,2V118.7z M111.7,112.4c-1.6-0.3-3.2-0.6-4.7-0.6
				c-1.8,0-3.9,0.6-3.8,2.6c0.1,2,2.2,2.9,4,2.9c2.2,0,4.5-2.1,4.5-4.4V112.4z"/>
			<path class="st0" d="M123.4,108.4c0-6,3.4-10.5,9.5-10.5c3,0,5.1,0.8,7.5,3l-1.1,1.2c-2.1-1.9-3.9-2.6-6.4-2.6
				c-5.1,0-7.9,3.8-7.9,8.8c0,5,2.8,8.9,7.9,8.9c2.5,0,4.4-0.7,6.5-2.4l1,1.2c-2.4,2-4.6,2.8-7.5,2.8
				C127.2,118.9,123.4,114.8,123.4,108.4z"/>
			<path class="st0" d="M151.5,107.7c-0.9-0.8-1.9-1.3-2.9-1.3c-2.1,0-3.8,1.6-4,3.6v8.8H143v-14.1h1.6v1.6c1-0.9,2.5-1.6,4-1.6
				c1.4,0,2.9,0.7,4.2,1.9L151.5,107.7z"/>
			<path class="st0" d="M154.7,112.8c0.2,2.8,2.4,4.3,5.2,4.3c1,0,2.3-0.3,3.5-1l0.8,1.5c-1.4,0.8-3,1.2-4.4,1.2
				c-4.3,0-6.8-2.7-6.8-6.9c0-4.1,2.2-7.4,6.6-7.4c3.5,0,5.2,2.2,5.2,4.3c0,2.2-1.8,4.5-5.5,4.5
				C157.8,113.4,156.3,113.2,154.7,112.8z M154.7,111.1c1.6,0.3,3.2,0.6,4.7,0.6c2.5,0,3.8-1.5,3.8-2.9c0-1.4-1.2-2.7-3.6-2.7
				C156.9,106.1,155.1,108.5,154.7,111.1z"/>
			<path class="st0" d="M180.4,118.7c-2.2,0-3-0.9-3.3-2c-1.1,1.4-2.8,2.1-4.5,2.1c-2.9,0-5.6-1.5-5.6-4.7c0-3.2,3.2-3.9,5.6-3.9
				c1.6,0,3,0.2,4.5,0.5c-0.2-2.7-2.1-4.3-5.1-4.3c-1,0-2.2,0.3-3.5,1l-0.8-1.4c1.5-0.9,3-1.3,4.3-1.3c1.2,0,2.4,0.2,3.4,0.8
				c3.2,1.6,3.3,4.4,3.3,7.1c0,0.4,0,0.8,0,2.5c0,1.4,0.3,2,1.8,2V118.7z M177,112.4c-1.6-0.3-3.2-0.6-4.7-0.6
				c-1.8,0-3.9,0.6-3.8,2.6c0.1,2,2.2,2.9,4,2.9c2.2,0,4.5-2.1,4.5-4.4V112.4z"/>
			<path class="st0" d="M184,114.7v-8.4h-1.9v-1.6h1.9v-4.2h1.6v4.2h4.7v1.6h-4.7v8.4c0,1.6,0.8,2.5,2.4,2.5c0.5,0,1-0.1,1.8-0.5
				l0.5,1.6c-1,0.4-1.8,0.5-2.4,0.5C185.4,118.8,184,117.4,184,114.7z"/>
			<path class="st0" d="M193.6,99c0-0.6,0.5-1.1,1.1-1.1c0.5,0,1,0.5,1,1.1c0,0.5-0.5,1-1,1C194.1,100.1,193.6,99.5,193.6,99z
				 M193.8,118.8v-14.1h1.6v14.1H193.8z"/>
			<path class="st0" d="M199.7,104.7l4.6,11.3c0.8-2.1,1.8-4.5,2.8-6.7c0.6-1.4,1.2-3.2,1.8-4.6h1.8l-5.7,14.1h-1.4l-5.7-14.1H199.7
				z"/>
			<path class="st0" d="M225.3,118.7c-2.2,0-3-0.9-3.3-2c-1.1,1.4-2.8,2.1-4.5,2.1c-2.9,0-5.6-1.5-5.6-4.7c0-3.2,3.2-3.9,5.6-3.9
				c1.6,0,3,0.2,4.5,0.5c-0.2-2.7-2.1-4.3-5.1-4.3c-1,0-2.2,0.3-3.5,1l-0.8-1.4c1.5-0.9,3-1.3,4.3-1.3c1.2,0,2.4,0.2,3.4,0.8
				c3.2,1.6,3.3,4.4,3.3,7.1c0,0.4,0,0.8,0,2.5c0,1.4,0.3,2,1.8,2V118.7z M221.9,112.4c-1.6-0.3-3.2-0.6-4.7-0.6
				c-1.8,0-3.9,0.6-3.8,2.6c0.1,2,2.2,2.9,4,2.9c2.2,0,4.5-2.1,4.5-4.4V112.4z"/>
			<path class="st0" d="M233.6,118.8V98.1h5.5c7.1,0,10.6,5.1,10.6,10.3c0,5.2-3.6,10.4-10.6,10.4H233.6z M239.2,117.3
				c5.9,0,8.9-4.4,8.9-8.8c0-4.3-3-8.7-9-8.7h-3.9v17.5H239.2z"/>
			<path class="st0" d="M253.1,99c0-0.6,0.5-1.1,1.1-1.1c0.5,0,1,0.5,1,1.1c0,0.5-0.5,1-1,1C253.6,100.1,253.1,99.5,253.1,99z
				 M253.4,118.8v-14.1h1.6v14.1H253.4z"/>
			<path class="st0" d="M258.4,112.7v-1.9c0-3.3,2.8-6,6.1-6c1.8,0,3.5,0.7,4.6,2.1c0.5-1.2,1.5-2,3.4-2v1.6c-1.4,0-2,0.6-2,1.6
				l-0.1,12.4c0,4.7-2.5,8.1-6.8,8.1c-2.3,0-4.6-1.2-4.6-3.9c0-4.5,5-4.9,8.3-4.9l1.4,0l0-3c-1.2,1.2-2.8,1.9-4.4,1.9
				C261.2,118.7,258.4,116,258.4,112.7z M260.1,110.8v1.9c0,2.4,2,4.4,4.4,4.4c2.1,0,4.3-1.8,4.4-3.9v0c0-0.8,0-1.8,0-2.5
				c0-2.3-2.2-4.2-4.4-4.2C262.1,106.4,260.1,108.4,260.1,110.8z M267.3,121.5c-2.5,0-6.5,0.2-6.5,3.2c0,1.5,1.4,2.3,2.8,2.3
				c3.2,0,5.3-2.7,5.3-5.5L267.3,121.5z"/>
			<path class="st0" d="M275.2,99c0-0.6,0.5-1.1,1.1-1.1c0.5,0,1,0.5,1,1.1c0,0.5-0.5,1-1,1C275.7,100.1,275.2,99.5,275.2,99z
				 M275.4,118.8v-14.1h1.6v14.1H275.4z"/>
			<path class="st0" d="M282.3,114.7v-8.4h-1.9v-1.6h1.9v-4.2h1.6v4.2h4.7v1.6h-4.7v8.4c0,1.6,0.8,2.5,2.4,2.5c0.5,0,1-0.1,1.8-0.5
				l0.5,1.6c-1,0.4-1.8,0.5-2.4,0.5C283.6,118.8,282.3,117.4,282.3,114.7z"/>
			<path class="st0" d="M303.9,118.7c-2.2,0-3-0.9-3.3-2c-1.1,1.4-2.8,2.1-4.5,2.1c-2.9,0-5.6-1.5-5.6-4.7c0-3.2,3.2-3.9,5.6-3.9
				c1.6,0,3,0.2,4.5,0.5c-0.2-2.7-2.1-4.3-5.1-4.3c-1,0-2.2,0.3-3.5,1l-0.8-1.4c1.5-0.9,3-1.3,4.3-1.3c1.2,0,2.4,0.2,3.4,0.8
				c3.2,1.6,3.3,4.4,3.3,7.1c0,0.4,0,0.8,0,2.5c0,1.4,0.3,2,1.7,2V118.7z M300.5,112.4c-1.6-0.3-3.2-0.6-4.7-0.6
				c-1.8,0-3.9,0.6-3.8,2.6c0.1,2,2.2,2.9,4,2.9c2.2,0,4.5-2.1,4.5-4.4V112.4z"/>
			<path class="st0" d="M306.6,114.7V98.6h1.6v16.1c0,1.6,0.8,2.5,2.4,2.5c0.6,0,1.2-0.1,1.9-0.4l0.5,1.5c-0.9,0.3-1.8,0.5-2.4,0.5
				C307.9,118.8,306.6,117.3,306.6,114.7z"/>
		</g>
	</g>
</g>
<g>
	<rect id="Tilde" x="87.4" y="8.9" class="st0" width="24.9" height="9"/>
	<path id="O_1" class="st0" d="M69.4,53.7c0-4.2,0.8-8.1,2.4-11.8c1.6-3.7,3.8-6.9,6.5-9.7c2.8-2.8,6-4.9,9.7-6.5
		c3.7-1.6,7.7-2.4,11.8-2.4c4.2,0,8.1,0.8,11.8,2.4c3.7,1.6,6.9,3.8,9.7,6.5c2.8,2.8,4.9,6,6.5,9.7c1.6,3.7,2.4,7.7,2.4,11.8
		c0,4.2-0.8,8.1-2.4,11.8c-1.6,3.7-3.8,6.9-6.5,9.7c-2.8,2.8-6,4.9-9.7,6.5c-3.7,1.6-7.7,2.4-11.8,2.4c-4.2,0-8.1-0.8-11.8-2.4
		c-3.7-1.6-6.9-3.8-9.7-6.5c-2.8-2.8-4.9-6-6.5-9.7C70.2,61.8,69.4,57.9,69.4,53.7z M87.6,53.7c0,1.7,0.3,3.3,1,4.7
		c0.6,1.5,1.5,2.8,2.6,3.9c1.1,1.1,2.4,2,3.9,2.6c1.5,0.6,3.1,1,4.7,1c1.7,0,3.3-0.3,4.7-1c1.5-0.6,2.8-1.5,3.9-2.6
		c1.1-1.1,2-2.4,2.6-3.9c0.6-1.5,1-3.1,1-4.7c0-1.7-0.3-3.3-1-4.7c-0.6-1.5-1.5-2.8-2.6-3.9c-1.1-1.1-2.4-2-3.9-2.6
		c-1.5-0.6-3.1-1-4.7-1c-1.7,0-3.3,0.3-4.7,1c-1.5,0.6-2.8,1.5-3.9,2.6c-1.1,1.1-2,2.4-2.6,3.9C88,50.4,87.6,52,87.6,53.7z"/>
</g>
<g id="parte2" clip-path="url(#cut-off-parte2)">
	<g class="st1">
		<path id="B" class="st0" d="M129.3,24.7H152c2.9,0,5.5,0.3,8,1c2.4,0.7,4.5,1.7,6.2,3c1.7,1.3,3,2.9,4,4.9c1,1.9,1.4,4.2,1.4,6.8
			c0,1.9-0.2,3.4-0.7,4.7c-0.5,1.3-1,2.4-1.5,3.3c-0.6,1-1.4,1.9-2.2,2.6c1.3,0.8,2.4,1.9,3.5,3.1c0.9,1.1,1.7,2.5,2.4,4.2
			c0.7,1.7,1.1,3.7,1.1,6.2c0,2.8-0.5,5.3-1.5,7.6c-1,2.3-2.4,4.2-4.2,5.8c-1.8,1.6-4.1,2.8-6.7,3.7c-2.6,0.8-5.6,1.3-8.8,1.3h-23.6
			V24.7z M153.6,42.3c0-2.7-1.4-4-4.3-4h-2.1v8h2.1C152.2,46.3,153.6,45,153.6,42.3z M149.3,69c4.4,0,6.6-1.7,6.6-5
			c0-3.4-2.2-5-6.6-5h-2.1V69H149.3z"/>
		<path id="A" class="st0" d="M189.5,24.7h13.9l22,58h-18.3l-1.9-5.2h-17.6l-1.9,5.2h-18.3L189.5,24.7z M200.3,64.7l-3.9-10.2
			l-3.9,10.2H200.3z"/>
		<path id="L" class="st0" d="M222.1,24.7h19.3v42.8h16v15.2h-35.3V24.7z"/>
		<path id="O_x5F_2" class="st0" d="M252.1,53.7c0-4.2,0.8-8.1,2.4-11.8c1.6-3.7,3.8-6.9,6.5-9.7c2.8-2.8,6-4.9,9.7-6.5
			c3.7-1.6,7.6-2.4,11.8-2.4c4.2,0,8.1,0.8,11.8,2.4c3.7,1.6,6.9,3.8,9.7,6.5c2.8,2.8,4.9,6,6.5,9.7c1.6,3.7,2.4,7.7,2.4,11.8
			c0,4.2-0.8,8.1-2.4,11.8c-1.6,3.7-3.8,6.9-6.5,9.7c-2.8,2.8-6,4.9-9.7,6.5c-3.7,1.6-7.7,2.4-11.8,2.4c-4.2,0-8.1-0.8-11.8-2.4
			c-3.7-1.6-6.9-3.8-9.7-6.5c-2.8-2.8-4.9-6-6.5-9.7C252.9,61.8,252.1,57.9,252.1,53.7z M270.4,53.7c0,1.7,0.3,3.3,1,4.7
			c0.6,1.5,1.5,2.8,2.6,3.9c1.1,1.1,2.4,2,3.9,2.6c1.5,0.6,3.1,1,4.7,1c1.7,0,3.3-0.3,4.7-1c1.5-0.6,2.8-1.5,3.9-2.6
			c1.1-1.1,2-2.4,2.6-3.9c0.6-1.5,1-3.1,1-4.7c0-1.7-0.3-3.3-1-4.7c-0.6-1.5-1.5-2.8-2.6-3.9c-1.1-1.1-2.4-2-3.9-2.6
			c-1.5-0.6-3.1-1-4.7-1c-1.7,0-3.3,0.3-4.7,1c-1.5,0.6-2.8,1.5-3.9,2.6c-1.1,1.1-2,2.4-2.6,3.9C270.7,50.4,270.4,52,270.4,53.7z"/>
	</g>
</g>
<g id="parte1" clip-path="url(#cut-off-parte1)">
	<path id="G" class="st2" d="M54.3,44.4c-1-0.9-2.3-1.6-3.9-2.1c-1.6-0.5-3.1-0.7-4.6-0.7c-1.7,0-3.2,0.3-4.6,0.9
		c-1.4,0.6-2.6,1.4-3.6,2.5c-1,1.1-1.8,2.4-2.4,3.9c-0.6,1.5-0.9,3.1-0.9,4.9s0.3,3.4,1,4.9c0.6,1.5,1.5,2.8,2.6,3.9
		c1.1,1.1,2.4,1.9,3.9,2.5c1.5,0.6,3.1,0.9,4.7,0.9c2,0,3.8-0.4,5.4-1.3c1.6-0.8,3-2,4.2-3.4h-5.2V49h22.3v19.3
		c-1.3,2.4-2.9,4.5-4.8,6.5c-1.9,1.9-3.9,3.6-6.2,5c-2.3,1.4-4.8,2.5-7.4,3.2c-2.7,0.8-5.4,1.1-8.3,1.1c-4.2,0-8.1-0.8-11.8-2.3
		c-3.7-1.6-6.9-3.7-9.7-6.4c-2.8-2.7-4.9-5.9-6.5-9.6C16.8,62,16,58,16,53.7c0-4.2,0.8-8.1,2.3-11.8c1.5-3.7,3.6-6.9,6.2-9.7
		c2.6-2.8,5.8-4.9,9.4-6.5c3.6-1.6,7.5-2.4,11.7-2.4c3.2,0,6.1,0.3,8.4,1c2.4,0.6,4.4,1.4,6,2.2c1.9,0.9,3.5,1.9,4.8,3L54.3,44.4z"
		/>
</g>
</svg>

